<?xml version="1.0" encoding="utf-8"?>
<!-- Generator: Adobe Illustrator 16.0.0, SVG Export Plug-In . SVG Version: 6.00 Build 0)  -->
<!DOCTYPE svg PUBLIC "-//W3C//DTD SVG 1.1//EN" "http://www.w3.org/Graphics/SVG/1.1/DTD/svg11.dtd">
<svg version="1.1" id="Layer_1" xmlns="http://www.w3.org/2000/svg" xmlns:xlink="http://www.w3.org/1999/xlink" x="0px" y="0px"
	 width="1028.529px" height="193.013px" viewBox="0 0 1028.529 193.013" enable-background="new 0 0 1028.529 193.013"
	 xml:space="preserve">
<g>
	<rect x="259.146" y="2.733" fill="#FFFFFF" width="13.427" height="187.484"/>
	<polygon fill="#FFFFFF" points="289.344,3.065 404.712,3.065 404.712,14.777 353.907,14.777 353.38,190.221 339.623,190.221 
		340.285,14.777 289.344,14.777 	"/>
	<path fill="#FFFFFF" d="M567.764,156.666c0,17.303-13.096,28.295-29.541,33.161c-14.809,4.215-37.844,4.215-52.519,0.197
		c-17.303-4.404-31.062-15.393-31.254-33.358V36.759v-0.195c0.192-19.546,16.582-31.061,36.13-34.88
		c14.673-2.63,35.987-2.437,49.943,2.435c15.865,5.067,27.24,16.056,27.24,32.64l-13.289-0.195c0-9.743-7.834-16.389-17.966-19.876
		c-12.234-4.207-30.733-4.207-43.499-1.91c-13.755,2.767-25.135,9.938-25.135,21.982v119.907c0,10.522,9.274,17.496,21.322,20.46
		c12.564,3.624,32.97,3.153,45.204-0.197c11.655-3.157,20.073-9.938,20.073-20.263v-46.734h-36.981V97.695h50.271V156.666z"/>
	<path fill="#FFFFFF" d="M591.457,2.538h15.202v23.755h-15.202V2.538z M592.313,58.936h13.481v131.282h-13.481V58.936z"/>
	<path fill="#FFFFFF" d="M911.067,155.612c0,16.446-11.651,27.245-27.051,32.506c-11.379,3.816-23.891,4.203-35.932,2.569
		c-20.069-3.627-37.179-15.006-37.179-35.075V93.484c0-17.634,13.562-28.956,30.67-33.5c6.315-1.772,12.626-2.63,19.41-2.63
		c6.781,0,13.289,0.858,19.68,2.63c17.109,4.544,30.401,15.866,30.401,33.5V155.612z M897.775,155.612V93.484
		c0-10.463-9.082-17.439-20.733-20.595c-5.067-1.383-10.328-2.109-16.056-2.109c-5.454,0-10.987,0.726-16.059,2.109
		c-11.379,3.156-20.46,9.937-20.46,20.595v62.128c0,12.042,12.041,19.6,25.721,22.174c9.938,1.439,20.073,1.057,29.621-2.104
		C889.94,172.058,897.775,165.081,897.775,155.612"/>
	<path fill="#FFFFFF" d="M938.301,157.715c9.741,23.034,39.479,23.034,56.005,18.353c11.575-3.153,20.661-10.32,20.661-21.119
		c0.466-18.356-18.364-20.926-37.187-23.23c-24.478-3.157-48.755-6.118-48.562-36.849c0.197-18.495,13.763-30.011,30.864-35.077
		c21.131-5.924,55.35-3.487,65.481,19.213l-10.799,6.98c-9.935-16.918-34.408-17.97-51.328-13.099
		c-11.849,3.489-20.93,10.658-20.93,21.983c-0.193,18.493,18.629,20.793,37.187,23.09c24.55,3.43,49.027,6.588,48.834,36.989
		c-0.197,18.159-13.763,29.349-30.868,34.215c-23.23,6.784-61.66,2.107-70.738-24.087L938.301,157.715z"/>
	<path fill="#FFFFFF" d="M741.518,56.946c-24.641-0.165-50.18,11.547-50.18,37.706v95.486h13.755V94.456
		c0-15.86,18.163-24.415,36.326-24.415c0.03,0,0.064,0,0.099,0c0.03,0,0.064,0,0.095,0c18.163,0,36.599,8.555,36.599,24.415v95.681
		h13.482V94.651C791.693,68.493,766.427,56.781,741.518,56.946"/>
	<path fill="#FFFFFF" d="M679.201,56.946v13.095c-0.034,0-0.068,0-0.099,0c-18.163,0-36.325,8.555-36.325,24.415v95.681h-13.752
		V94.651C629.025,68.493,654.557,56.781,679.201,56.946"/>
</g>
<path fill="#FFFFFF" d="M115.429,48.306l-2.869-0.856l2.456-1.594c13.838-9.146,29.873-14.045,46.424-14.045
	c0.655,0,1.302,0.011,2.088,0.034c-3.766-3.97-7.806-7.602-12.076-10.852c-38.454,3.874-71.179,31.476-81.678,68.68v-0.004
	c0.004,0-0.72,4.508-0.72,6.87c0,0.125,0.022,0.383,0.038,0.508c0.023,0.163,0.044,0.462,0.051,0.627l0.101,2.756l-2.17-1.465
	c-4.404-2.89-8.451-6.032-12.047-9.494l-0.518-0.5l0.089-0.658C61.503,48.41,91.944,17.153,131.333,9.12
	c-6.593-2.896-13.501-4.958-20.526-6.161C79.169,15.291,54.703,42.22,45.466,74.843l-0.858,2.731L43.01,75.25
	c-9.142-13.838-14.041-29.867-14.041-46.417c0-0.667,0.017-1.471,0.036-2.13c-3.968,3.629-7.605,7.683-10.995,12.099
	c4.006,38.461,31.61,71.058,68.822,81.697c0.019,0,4.556,0.895,6.938,0.895c0.104,0,0.201-0.019,0.438-0.033
	c0.154-0.02,0.445-0.038,0.601-0.046l2.6-0.353l-1.458,2.426c-2.738,4.241-6.005,8.271-9.326,11.992l-0.499,0.387l-0.792-0.095
	C45.574,128.77,14.32,98.195,6.279,58.951C3.393,65.536,1.332,72.465,0,79.511c12.479,31.751,39.396,56.062,71.862,65.295
	l2.873,0.86l-2.46,1.455c-13.698,9.415-29.733,14.039-46.287,14.039c-0.627,0-1.388-0.011-2.011-0.033
	c3.633,3.964,7.681,7.731,12.095,10.979c38.272-4.048,70.958-31.508,81.445-68.668c-0.004,0,0.97-4.521,0.97-6.9
	c0-0.104-0.019-0.337-0.032-0.441c-0.023-0.146-0.042-0.434-0.049-0.591l-0.078-2.604l2.155,1.463
	c4.357,2.734,8.355,5.985,11.919,9.282l0.517,0.637l-0.089,0.516c-6.891,39.832-37.406,71.075-76.573,79.164
	c6.714,2.873,13.508,4.928,20.547,6.106c31.544-12.36,55.812-39.26,65.157-71.659l0.72-2.869l1.732,2.319
	c9.146,13.835,14.045,29.864,14.045,46.283c0,0.751-0.012,1.501-0.032,1.975c3.828-3.491,7.594-7.539,10.834-12.075
	c-4.048-38.264-31.648-70.941-68.797-81.289c-0.011,0-4.482-0.936-6.693-0.936c-0.123,0-0.379,0.022-0.5,0.038
	c-0.174,0.025-0.46,0.047-0.627,0.055l-2.755,0.099l1.469-2.172c2.873-4.37,5.998-8.392,9.447-11.968l0.499-0.518l0.659,0.089
	c39.701,6.895,71.083,37.404,79.16,76.444c2.748-6.433,4.937-13.353,6.135-20.38C174.76,81.944,147.993,57.662,115.429,48.306
	 M90.654,82.13c4.069,0,16.194,6.292,17.28,10.228c0.87,3.819-6.218,17.107-9.773,18.332c-0.436,0.11-0.916,0.163-1.458,0.163
	c-4.567,0-17.121-5.955-17.121-10.34c0.004-4.831,5.833-16.562,9.72-18.087C89.706,82.318,90.151,82.13,90.654,82.13"/>
</svg>
